<?xml version="1.0" standalone="no"?>
<!DOCTYPE svg PUBLIC "-//W3C//DTD SVG 20010904//EN"
 "http://www.w3.org/TR/2001/REC-SVG-20010904/DTD/svg10.dtd">
<svg version="1.0" xmlns="http://www.w3.org/2000/svg"
 width="512.000000pt" height="512.000000pt" viewBox="0 0 512.000000 512.000000"
 preserveAspectRatio="xMidYMid meet">

<g transform="translate(0.000000,512.000000) scale(0.100000,-0.100000)"
fill="#000000" stroke="none">
<path d="M25 5095 l-25 -24 0 -1311 0 -1311 25 -24 24 -25 2511 0 2511 0 24
25 25 24 0 1311 0 1311 -25 24 -24 25 -2511 0 -2511 0 -24 -25z m4755 -210
l-85 -85 -411 0 c-453 0 -433 3 -449 -62 -6 -22 -1 -33 23 -58 l30 -30 381 0
381 0 0 -722 0 -721 -72 69 c-256 245 -686 643 -720 667 -54 36 -108 50 -190
50 -119 0 -150 -22 -507 -357 -270 -254 -316 -293 -331 -283 -9 7 -186 172
-393 367 -438 413 -442 415 -581 415 -140 0 -150 -7 -501 -335 -165 -155 -306
-289 -312 -298 -33 -42 6 -112 62 -112 31 0 64 28 335 283 166 155 315 290
333 299 46 25 115 23 165 -4 22 -13 289 -257 593 -543 304 -286 562 -528 574
-537 19 -16 -49 -17 -1250 -18 l-1270 0 115 107 c224 208 260 247 260 278 0
38 -36 75 -71 75 -30 0 -69 -32 -298 -249 l-121 -113 0 841 0 841 1586 2 1586
3 19 24 c25 30 24 76 -1 101 -20 20 -33 20 -1628 20 l-1607 0 -85 85 -85 85
2305 0 2305 0 -85 -85z m-4460 -1125 l0 -935 -85 -85 -85 -85 0 1105 0 1105
85 -85 85 -85 0 -935z m4650 -2 l0 -1103 -85 85 -85 85 0 935 0 935 82 82 c46
46 84 83 85 83 2 0 3 -496 3 -1102z m-1199 59 c20 -12 225 -199 455 -416 l419
-394 3 -69 3 -68 -655 0 -655 0 -188 177 c-104 97 -189 181 -190 187 -1 10
287 285 537 513 119 108 181 124 271 70z m1009 -1182 l85 -85 -2305 0 -2305 0
85 85 85 85 2135 0 2135 0 85 -85z"/>
<path d="M2763 4475 c-97 -27 -175 -94 -216 -184 -32 -71 -30 -189 4 -261 32
-66 86 -123 154 -158 43 -23 62 -27 140 -27 75 0 98 4 140 25 63 31 117 85
152 152 24 46 28 65 28 138 0 101 -20 154 -85 224 -79 86 -207 122 -317 91z
m172 -164 c60 -35 94 -114 81 -187 -9 -45 -67 -109 -113 -125 -169 -55 -304
150 -185 282 52 58 147 71 217 30z"/>
<path d="M404 2170 c-106 -22 -203 -101 -251 -205 -23 -50 -27 -73 -27 -141 0
-71 4 -90 32 -147 18 -36 50 -81 72 -101 l40 -36 0 -557 0 -558 -59 -27 c-114
-53 -195 -164 -207 -285 -6 -57 -5 -63 19 -87 l26 -26 421 0 c256 0 429 4 440
10 27 15 39 59 29 118 -19 120 -95 221 -205 268 l-64 28 0 345 0 345 93 -90
c110 -107 165 -149 272 -202 175 -88 314 -117 525 -109 160 6 272 30 396 87
105 47 232 137 322 228 l82 83 0 -344 0 -343 -54 -23 c-119 -49 -205 -166
-214 -291 -4 -63 -3 -68 23 -88 27 -22 32 -22 445 -22 413 0 418 0 445 22 26
20 27 25 23 88 -9 125 -95 242 -214 291 l-54 23 0 343 0 344 83 -83 c138 -140
296 -233 480 -284 136 -38 352 -44 495 -15 211 44 360 123 524 280 l108 103 0
-344 0 -344 -55 -23 c-112 -46 -195 -152 -214 -271 -10 -61 1 -105 29 -120 11
-6 184 -10 440 -10 l421 0 26 26 c24 24 25 30 19 87 -12 121 -92 231 -204 283
l-61 28 -3 214 c-3 211 -3 214 -27 233 -30 25 -76 24 -101 -1 -19 -19 -20 -33
-20 -230 l0 -210 -50 0 -50 0 0 526 0 525 48 -3 47 -3 3 -197 2 -197 27 -20
c34 -27 56 -26 90 3 l28 24 3 223 3 223 45 48 c69 74 98 145 98 243 0 67 -4
90 -28 142 -66 144 -225 231 -372 204 -116 -22 -200 -82 -255 -183 -32 -59
-34 -69 -34 -158 0 -82 4 -103 27 -152 15 -32 47 -77 72 -102 46 -44 46 -45
46 -113 0 -60 -4 -75 -36 -128 -186 -308 -470 -475 -808 -475 -268 0 -477 90
-667 286 -132 138 -179 221 -179 320 l0 66 55 60 c190 205 78 528 -201 579
-191 35 -386 -117 -401 -315 -8 -100 23 -189 92 -264 l55 -60 0 -66 c0 -71
-14 -110 -73 -196 -47 -68 -175 -197 -244 -246 -75 -54 -206 -116 -293 -139
-88 -23 -290 -31 -386 -16 -270 44 -503 209 -658 467 -32 52 -36 67 -36 127 0
68 0 69 46 113 25 25 57 70 72 102 23 49 27 70 27 152 0 85 -3 101 -29 150
-72 140 -235 221 -382 190z m175 -178 c56 -34 91 -96 91 -163 0 -61 -13 -96
-53 -138 -41 -43 -84 -61 -147 -61 -178 0 -262 209 -135 336 69 69 158 78 244
26z m2071 13 c36 -19 77 -65 94 -107 54 -128 -42 -268 -184 -268 -145 0 -241
145 -181 275 21 47 80 102 119 111 15 3 32 7 37 9 17 6 88 -7 115 -20z m2048
13 c98 -25 168 -140 143 -235 -26 -95 -97 -153 -189 -153 -65 0 -107 17 -149
61 -39 42 -53 77 -53 136 0 105 79 187 193 202 5 1 29 -4 55 -11z m-4178
-1063 l0 -525 -50 0 -50 0 0 518 c0 285 3 522 7 525 3 4 26 7 50 7 l43 0 0
-525z m2090 0 l0 -525 -50 0 -50 0 0 525 0 525 50 0 50 0 0 -525z m-1909 -710
c24 -17 52 -45 62 -63 l19 -32 -306 0 c-190 0 -306 4 -306 10 0 19 66 84 105
102 35 16 62 18 212 16 l171 -3 43 -30z m2083 0 c26 -16 57 -45 68 -62 l20
-33 -312 0 -311 0 18 31 c20 34 54 62 105 84 26 12 70 14 199 12 165 -2 166
-2 213 -32z m2061 16 c39 -17 105 -81 105 -101 0 -6 -116 -10 -305 -10 l-306
0 16 29 c17 34 66 74 110 89 17 6 100 11 185 11 129 0 162 -2 195 -18z"/>
</g>
</svg>
